<?xml version="1.0" standalone="no"?><svg xmlns="http://www.w3.org/2000/svg" viewBox="0 0 1440 320"><path fill="#f3f4f5" fill-opacity="1" d="M0,160L30,186.7C60,213,120,267,180,245.3C240,224,300,128,360,96C420,64,480,96,540,144C600,192,660,256,720,261.3C780,267,840,213,900,170.7C960,128,1020,96,1080,117.3C1140,139,1200,213,1260,213.3C1320,213,1380,139,1410,101.3L1440,64L1440,320L1410,320C1380,320,1320,320,1260,320C1200,320,1140,320,1080,320C1020,320,960,320,900,320C840,320,780,320,720,320C660,320,600,320,540,320C480,320,420,320,360,320C300,320,240,320,180,320C120,320,60,320,30,320L0,320Z"></path></svg>