<?xml version="1.0" standalone="no"?><svg xmlns="http://www.w3.org/2000/svg" viewBox="0 0 1440 320"><path fill="#0099ff" fill-opacity="1" d="M0,224L24,234.7C48,245,96,267,144,250.7C192,235,240,181,288,144C336,107,384,85,432,96C480,107,528,149,576,149.3C624,149,672,107,720,112C768,117,816,171,864,197.3C912,224,960,224,1008,197.3C1056,171,1104,117,1152,133.3C1200,149,1248,235,1296,256C1344,277,1392,235,1416,213.3L1440,192L1440,320L1416,320C1392,320,1344,320,1296,320C1248,320,1200,320,1152,320C1104,320,1056,320,1008,320C960,320,912,320,864,320C816,320,768,320,720,320C672,320,624,320,576,320C528,320,480,320,432,320C384,320,336,320,288,320C240,320,192,320,144,320C96,320,48,320,24,320L0,320Z"></path></svg>