<?xml version="1.0" standalone="no"?><svg xmlns="http://www.w3.org/2000/svg" viewBox="0 0 1440 320"><path fill="#a2d9ff" fill-opacity="1" d="M0,64L30,85.3C60,107,120,149,180,144C240,139,300,85,360,101.3C420,117,480,203,540,208C600,213,660,139,720,128C780,117,840,171,900,176C960,181,1020,139,1080,133.3C1140,128,1200,160,1260,165.3C1320,171,1380,149,1410,138.7L1440,128L1440,320L1410,320C1380,320,1320,320,1260,320C1200,320,1140,320,1080,320C1020,320,960,320,900,320C840,320,780,320,720,320C660,320,600,320,540,320C480,320,420,320,360,320C300,320,240,320,180,320C120,320,60,320,30,320L0,320Z"></path></svg>