<?xml version="1.0" standalone="no"?><svg xmlns="http://www.w3.org/2000/svg" viewBox="0 0 1440 320"><path fill="#0099ff" fill-opacity="1" d="M0,256L20,256C40,256,80,256,120,229.3C160,203,200,149,240,144C280,139,320,181,360,170.7C400,160,440,96,480,106.7C520,117,560,203,600,234.7C640,267,680,245,720,224C760,203,800,181,840,170.7C880,160,920,160,960,170.7C1000,181,1040,203,1080,208C1120,213,1160,203,1200,176C1240,149,1280,107,1320,101.3C1360,96,1400,128,1420,144L1440,160L1440,320L1420,320C1400,320,1360,320,1320,320C1280,320,1240,320,1200,320C1160,320,1120,320,1080,320C1040,320,1000,320,960,320C920,320,880,320,840,320C800,320,760,320,720,320C680,320,640,320,600,320C560,320,520,320,480,320C440,320,400,320,360,320C320,320,280,320,240,320C200,320,160,320,120,320C80,320,40,320,20,320L0,320Z"></path></svg>