<?xml version="1.0" standalone="no"?><svg xmlns="http://www.w3.org/2000/svg" viewBox="0 0 1440 320"><path fill="#0099ff" fill-opacity="1" d="M0,160L7.7,133.3C15.5,107,31,53,46,48C61.9,43,77,85,93,117.3C108.4,149,124,171,139,160C154.8,149,170,107,186,106.7C201.3,107,217,149,232,176C247.7,203,263,213,279,197.3C294.2,181,310,139,325,128C340.6,117,356,139,372,165.3C387.1,192,403,224,418,245.3C433.5,267,449,277,465,250.7C480,224,495,160,511,133.3C526.5,107,542,117,557,106.7C572.9,96,588,64,604,58.7C619.4,53,635,75,650,106.7C665.8,139,681,181,697,181.3C712.3,181,728,139,743,112C758.7,85,774,75,790,112C805.2,149,821,235,836,266.7C851.6,299,867,277,883,266.7C898.1,256,914,256,929,240C944.5,224,960,192,975,202.7C991,213,1006,267,1022,245.3C1037.4,224,1053,128,1068,106.7C1083.9,85,1099,139,1115,138.7C1130.3,139,1146,85,1161,80C1176.8,75,1192,117,1208,122.7C1223.2,128,1239,96,1254,112C1269.7,128,1285,192,1301,197.3C1316.1,203,1332,149,1347,133.3C1362.6,117,1378,139,1394,154.7C1409,171,1425,181,1432,186.7L1440,192L1440,320L1432.3,320C1424.5,320,1409,320,1394,320C1378.1,320,1363,320,1347,320C1331.6,320,1316,320,1301,320C1285.2,320,1270,320,1254,320C1238.7,320,1223,320,1208,320C1192.3,320,1177,320,1161,320C1145.8,320,1130,320,1115,320C1099.4,320,1084,320,1068,320C1052.9,320,1037,320,1022,320C1006.5,320,991,320,975,320C960,320,945,320,929,320C913.5,320,898,320,883,320C867.1,320,852,320,836,320C820.6,320,805,320,790,320C774.2,320,759,320,743,320C727.7,320,712,320,697,320C681.3,320,666,320,650,320C634.8,320,619,320,604,320C588.4,320,573,320,557,320C541.9,320,526,320,511,320C495.5,320,480,320,465,320C449,320,434,320,418,320C402.6,320,387,320,372,320C356.1,320,341,320,325,320C309.7,320,294,320,279,320C263.2,320,248,320,232,320C216.8,320,201,320,186,320C170.3,320,155,320,139,320C123.9,320,108,320,93,320C77.4,320,62,320,46,320C31,320,15,320,8,320L0,320Z"></path></svg>