<?xml version="1.0" standalone="no"?><svg xmlns="http://www.w3.org/2000/svg" viewBox="0 0 1440 320"><path fill="#0099ff" fill-opacity="1" d="M0,320L10.9,298.7C21.8,277,44,235,65,192C87.3,149,109,107,131,96C152.7,85,175,107,196,149.3C218.2,192,240,256,262,266.7C283.6,277,305,235,327,202.7C349.1,171,371,149,393,149.3C414.5,149,436,171,458,181.3C480,192,502,192,524,192C545.5,192,567,192,589,202.7C610.9,213,633,235,655,256C676.4,277,698,299,720,272C741.8,245,764,171,785,128C807.3,85,829,75,851,80C872.7,85,895,107,916,138.7C938.2,171,960,213,982,234.7C1003.6,256,1025,256,1047,250.7C1069.1,245,1091,235,1113,234.7C1134.5,235,1156,245,1178,229.3C1200,213,1222,171,1244,138.7C1265.5,107,1287,85,1309,96C1330.9,107,1353,149,1375,176C1396.4,203,1418,213,1429,218.7L1440,224L1440,320L1429.1,320C1418.2,320,1396,320,1375,320C1352.7,320,1331,320,1309,320C1287.3,320,1265,320,1244,320C1221.8,320,1200,320,1178,320C1156.4,320,1135,320,1113,320C1090.9,320,1069,320,1047,320C1025.5,320,1004,320,982,320C960,320,938,320,916,320C894.5,320,873,320,851,320C829.1,320,807,320,785,320C763.6,320,742,320,720,320C698.2,320,676,320,655,320C632.7,320,611,320,589,320C567.3,320,545,320,524,320C501.8,320,480,320,458,320C436.4,320,415,320,393,320C370.9,320,349,320,327,320C305.5,320,284,320,262,320C240,320,218,320,196,320C174.5,320,153,320,131,320C109.1,320,87,320,65,320C43.6,320,22,320,11,320L0,320Z"></path></svg>