<?xml version="1.0" standalone="no"?><svg xmlns="http://www.w3.org/2000/svg" viewBox="0 0 1440 320"><path fill="#00cba9" fill-opacity="1" d="M0,128L30,122.7C60,117,120,107,180,133.3C240,160,300,224,360,208C420,192,480,96,540,69.3C600,43,660,85,720,122.7C780,160,840,192,900,197.3C960,203,1020,181,1080,160C1140,139,1200,117,1260,133.3C1320,149,1380,203,1410,229.3L1440,256L1440,320L1410,320C1380,320,1320,320,1260,320C1200,320,1140,320,1080,320C1020,320,960,320,900,320C840,320,780,320,720,320C660,320,600,320,540,320C480,320,420,320,360,320C300,320,240,320,180,320C120,320,60,320,30,320L0,320Z"></path></svg>